<svg xmlns="http://www.w3.org/2000/svg" version="1.1" xmlns:xlink="http://www.w3.org/1999/xlink" xmlns:svgjs="http://svgjs.com/svgjs" width="1410" height="1000" preserveAspectRatio="none" viewBox="0 0 1410 1000"><g mask="url(&quot;#SvgjsMask2242&quot;)" fill="none"><rect width="1410" height="1000" x="0" y="0" fill="url(#SvgjsLinearGradient2243)"></rect><use xlink:href="#SvgjsG2245" transform="translate(0, 0)" fill="rgba(223, 17, 54, 1)"></use><use xlink:href="#SvgjsG2245" transform="translate(0, 480)" fill="rgba(223, 17, 54, 1)"></use><use xlink:href="#SvgjsG2245" transform="translate(0, 960)" fill="rgba(223, 17, 54, 1)"></use><use xlink:href="#SvgjsG2245" transform="translate(480, 0)" fill="rgba(223, 17, 54, 1)"></use><use xlink:href="#SvgjsG2245" transform="translate(480, 480)" fill="rgba(223, 17, 54, 1)"></use><use xlink:href="#SvgjsG2245" transform="translate(480, 960)" fill="rgba(223, 17, 54, 1)"></use><use xlink:href="#SvgjsG2245" transform="translate(960, 0)" fill="rgba(223, 17, 54, 1)"></use><use xlink:href="#SvgjsG2245" transform="translate(960, 480)" fill="rgba(223, 17, 54, 1)"></use><use xlink:href="#SvgjsG2245" transform="translate(960, 960)" fill="rgba(223, 17, 54, 1)"></use></g><defs><mask id="SvgjsMask2242"><rect width="1410" height="1000" fill="#ffffff"></rect></mask><linearGradient x1="7.27%" y1="-10.25%" x2="92.73%" y2="110.25%" gradientUnits="userSpaceOnUse" id="SvgjsLinearGradient2243"><stop stop-color="#0e2a47" offset="0"></stop><stop stop-color="rgba(251, 254, 255, 0.16)" offset="1"></stop></linearGradient><g id="SvgjsG2244"><path d="M8 14.66l5.904-5.908c1.836-1.836 1.8-4.512 0.132-6.174A4.268 4.268 0 0 0 8 2.58a4.264 4.264 0 0 0-6.03-0.02C0.3 4.24 0.26 6.92 2.1 8.744L8 14.66z"></path></g><g id="SvgjsG2245"><use xlink:href="#SvgjsG2244" transform="translate(0, 0) scale(2)" fill="rgba(223, 17, 54, 1)"></use><use xlink:href="#SvgjsG2244" transform="translate(0, 48) scale(2)" fill="rgba(223, 17, 54, 1)"></use><use xlink:href="#SvgjsG2244" transform="translate(0, 96) scale(2)" fill="rgba(223, 17, 54, 1)"></use><use xlink:href="#SvgjsG2244" transform="translate(0, 144) scale(2)" fill="rgba(223, 17, 54, 1)"></use><use xlink:href="#SvgjsG2244" transform="translate(0, 192) scale(2)" fill="rgba(223, 17, 54, 1)"></use><use xlink:href="#SvgjsG2244" transform="translate(0, 240) scale(2)" fill="rgba(223, 17, 54, 1)"></use><use xlink:href="#SvgjsG2244" transform="translate(0, 288) scale(2)" fill="rgba(223, 17, 54, 1)"></use><use xlink:href="#SvgjsG2244" transform="translate(0, 336) scale(2)" fill="rgba(223, 17, 54, 1)"></use><use xlink:href="#SvgjsG2244" transform="translate(0, 384) scale(2)" fill="rgba(223, 17, 54, 1)"></use><use xlink:href="#SvgjsG2244" transform="translate(0, 432) scale(2)" fill="rgba(223, 17, 54, 1)"></use><use xlink:href="#SvgjsG2244" transform="translate(48, 0) scale(2)" fill="rgba(223, 17, 54, 1)"></use><use xlink:href="#SvgjsG2244" transform="translate(48, 48) scale(2)" fill="rgba(223, 17, 54, 1)"></use><use xlink:href="#SvgjsG2244" transform="translate(48, 96) scale(2)" fill="rgba(223, 17, 54, 1)"></use><use xlink:href="#SvgjsG2244" transform="translate(48, 144) scale(2)" fill="rgba(223, 17, 54, 1)"></use><use xlink:href="#SvgjsG2244" transform="translate(48, 192) scale(2)" fill="rgba(223, 17, 54, 1)"></use><use xlink:href="#SvgjsG2244" transform="translate(48, 240) scale(2)" fill="rgba(223, 17, 54, 1)"></use><use xlink:href="#SvgjsG2244" transform="translate(48, 288) scale(2)" fill="rgba(223, 17, 54, 1)"></use><use xlink:href="#SvgjsG2244" transform="translate(48, 336) scale(2)" fill="rgba(223, 17, 54, 1)"></use><use xlink:href="#SvgjsG2244" transform="translate(48, 384) scale(2)" fill="rgba(223, 17, 54, 1)"></use><use xlink:href="#SvgjsG2244" transform="translate(48, 432) scale(2)" fill="rgba(223, 17, 54, 1)"></use><use xlink:href="#SvgjsG2244" transform="translate(96, 0) scale(2)" fill="rgba(223, 17, 54, 1)"></use><use xlink:href="#SvgjsG2244" transform="translate(96, 48) scale(2)" fill="rgba(223, 17, 54, 1)"></use><use xlink:href="#SvgjsG2244" transform="translate(96, 96) scale(2)" fill="rgba(223, 17, 54, 1)"></use><use xlink:href="#SvgjsG2244" transform="translate(96, 144) scale(2)" fill="rgba(223, 17, 54, 1)"></use><use xlink:href="#SvgjsG2244" transform="translate(96, 192) scale(2)" fill="rgba(223, 17, 54, 1)"></use><use xlink:href="#SvgjsG2244" transform="translate(96, 240) scale(2)" fill="rgba(223, 17, 54, 1)"></use><use xlink:href="#SvgjsG2244" transform="translate(96, 288) scale(2)" fill="rgba(223, 17, 54, 1)"></use><use xlink:href="#SvgjsG2244" transform="translate(96, 336) scale(2)" fill="rgba(223, 17, 54, 1)"></use><use xlink:href="#SvgjsG2244" transform="translate(96, 384) scale(2)" fill="rgba(223, 17, 54, 1)"></use><use xlink:href="#SvgjsG2244" transform="translate(96, 432) scale(2)" fill="rgba(223, 17, 54, 1)"></use><use xlink:href="#SvgjsG2244" transform="translate(144, 0) scale(2)" fill="rgba(223, 17, 54, 1)"></use><use xlink:href="#SvgjsG2244" transform="translate(144, 48) scale(2)" fill="rgba(223, 17, 54, 1)"></use><use xlink:href="#SvgjsG2244" transform="translate(144, 96) scale(2)" fill="rgba(223, 17, 54, 1)"></use><use xlink:href="#SvgjsG2244" transform="translate(144, 144) scale(2)" fill="rgba(223, 17, 54, 1)"></use><use xlink:href="#SvgjsG2244" transform="translate(144, 192) scale(2)" fill="rgba(223, 17, 54, 1)"></use><use xlink:href="#SvgjsG2244" transform="translate(144, 240) scale(2)" fill="rgba(223, 17, 54, 1)"></use><use xlink:href="#SvgjsG2244" transform="translate(144, 288) scale(2)" fill="rgba(223, 17, 54, 1)"></use><use xlink:href="#SvgjsG2244" transform="translate(144, 336) scale(2)" fill="rgba(223, 17, 54, 1)"></use><use xlink:href="#SvgjsG2244" transform="translate(144, 384) scale(2)" fill="rgba(223, 17, 54, 1)"></use><use xlink:href="#SvgjsG2244" transform="translate(144, 432) scale(2)" fill="rgba(223, 17, 54, 1)"></use><use xlink:href="#SvgjsG2244" transform="translate(192, 0) scale(2)" fill="rgba(223, 17, 54, 1)"></use><use xlink:href="#SvgjsG2244" transform="translate(192, 48) scale(2)" fill="rgba(223, 17, 54, 1)"></use><use xlink:href="#SvgjsG2244" transform="translate(192, 96) scale(2)" fill="rgba(223, 17, 54, 1)"></use><use xlink:href="#SvgjsG2244" transform="translate(192, 144) scale(2)" fill="rgba(223, 17, 54, 1)"></use><use xlink:href="#SvgjsG2244" transform="translate(192, 192) scale(2)" fill="rgba(223, 17, 54, 1)"></use><use xlink:href="#SvgjsG2244" transform="translate(192, 240) scale(2)" fill="rgba(223, 17, 54, 1)"></use><use xlink:href="#SvgjsG2244" transform="translate(192, 288) scale(2)" fill="rgba(223, 17, 54, 1)"></use><use xlink:href="#SvgjsG2244" transform="translate(192, 336) scale(2)" fill="rgba(223, 17, 54, 1)"></use><use xlink:href="#SvgjsG2244" transform="translate(192, 384) scale(2)" fill="rgba(223, 17, 54, 1)"></use><use xlink:href="#SvgjsG2244" transform="translate(192, 432) scale(2)" fill="rgba(223, 17, 54, 1)"></use><use xlink:href="#SvgjsG2244" transform="translate(240, 0) scale(2)" fill="rgba(223, 17, 54, 1)"></use><use xlink:href="#SvgjsG2244" transform="translate(240, 48) scale(2)" fill="rgba(223, 17, 54, 1)"></use><use xlink:href="#SvgjsG2244" transform="translate(240, 96) scale(2)" fill="rgba(223, 17, 54, 1)"></use><use xlink:href="#SvgjsG2244" transform="translate(240, 144) scale(2)" fill="rgba(223, 17, 54, 1)"></use><use xlink:href="#SvgjsG2244" transform="translate(240, 192) scale(2)" fill="rgba(223, 17, 54, 1)"></use><use xlink:href="#SvgjsG2244" transform="translate(240, 240) scale(2)" fill="rgba(223, 17, 54, 1)"></use><use xlink:href="#SvgjsG2244" transform="translate(240, 288) scale(2)" fill="rgba(223, 17, 54, 1)"></use><use xlink:href="#SvgjsG2244" transform="translate(240, 336) scale(2)" fill="rgba(223, 17, 54, 1)"></use><use xlink:href="#SvgjsG2244" transform="translate(240, 384) scale(2)" fill="rgba(223, 17, 54, 1)"></use><use xlink:href="#SvgjsG2244" transform="translate(240, 432) scale(2)" fill="rgba(223, 17, 54, 1)"></use><use xlink:href="#SvgjsG2244" transform="translate(288, 0) scale(2)" fill="rgba(223, 17, 54, 1)"></use><use xlink:href="#SvgjsG2244" transform="translate(288, 48) scale(2)" fill="rgba(223, 17, 54, 1)"></use><use xlink:href="#SvgjsG2244" transform="translate(288, 96) scale(2)" fill="rgba(223, 17, 54, 1)"></use><use xlink:href="#SvgjsG2244" transform="translate(288, 144) scale(2)" fill="rgba(223, 17, 54, 1)"></use><use xlink:href="#SvgjsG2244" transform="translate(288, 192) scale(2)" fill="rgba(223, 17, 54, 1)"></use><use xlink:href="#SvgjsG2244" transform="translate(288, 240) scale(2)" fill="rgba(223, 17, 54, 1)"></use><use xlink:href="#SvgjsG2244" transform="translate(288, 288) scale(2)" fill="rgba(223, 17, 54, 1)"></use><use xlink:href="#SvgjsG2244" transform="translate(288, 336) scale(2)" fill="rgba(223, 17, 54, 1)"></use><use xlink:href="#SvgjsG2244" transform="translate(288, 384) scale(2)" fill="rgba(223, 17, 54, 1)"></use><use xlink:href="#SvgjsG2244" transform="translate(288, 432) scale(2)" fill="rgba(223, 17, 54, 1)"></use><use xlink:href="#SvgjsG2244" transform="translate(336, 0) scale(2)" fill="rgba(223, 17, 54, 1)"></use><use xlink:href="#SvgjsG2244" transform="translate(336, 48) scale(2)" fill="rgba(223, 17, 54, 1)"></use><use xlink:href="#SvgjsG2244" transform="translate(336, 96) scale(2)" fill="rgba(223, 17, 54, 1)"></use><use xlink:href="#SvgjsG2244" transform="translate(336, 144) scale(2)" fill="rgba(223, 17, 54, 1)"></use><use xlink:href="#SvgjsG2244" transform="translate(336, 192) scale(2)" fill="rgba(223, 17, 54, 1)"></use><use xlink:href="#SvgjsG2244" transform="translate(336, 240) scale(2)" fill="rgba(223, 17, 54, 1)"></use><use xlink:href="#SvgjsG2244" transform="translate(336, 288) scale(2)" fill="rgba(223, 17, 54, 1)"></use><use xlink:href="#SvgjsG2244" transform="translate(336, 336) scale(2)" fill="rgba(223, 17, 54, 1)"></use><use xlink:href="#SvgjsG2244" transform="translate(336, 384) scale(2)" fill="rgba(223, 17, 54, 1)"></use><use xlink:href="#SvgjsG2244" transform="translate(336, 432) scale(2)" fill="rgba(223, 17, 54, 1)"></use><use xlink:href="#SvgjsG2244" transform="translate(384, 0) scale(2)" fill="rgba(223, 17, 54, 1)"></use><use xlink:href="#SvgjsG2244" transform="translate(384, 48) scale(2)" fill="rgba(223, 17, 54, 1)"></use><use xlink:href="#SvgjsG2244" transform="translate(384, 96) scale(2)" fill="rgba(223, 17, 54, 1)"></use><use xlink:href="#SvgjsG2244" transform="translate(384, 144) scale(2)" fill="rgba(223, 17, 54, 1)"></use><use xlink:href="#SvgjsG2244" transform="translate(384, 192) scale(2)" fill="rgba(223, 17, 54, 1)"></use><use xlink:href="#SvgjsG2244" transform="translate(384, 240) scale(2)" fill="rgba(223, 17, 54, 1)"></use><use xlink:href="#SvgjsG2244" transform="translate(384, 288) scale(2)" fill="rgba(223, 17, 54, 1)"></use><use xlink:href="#SvgjsG2244" transform="translate(384, 336) scale(2)" fill="rgba(223, 17, 54, 1)"></use><use xlink:href="#SvgjsG2244" transform="translate(384, 384) scale(2)" fill="rgba(223, 17, 54, 1)"></use><use xlink:href="#SvgjsG2244" transform="translate(384, 432) scale(2)" fill="rgba(223, 17, 54, 1)"></use><use xlink:href="#SvgjsG2244" transform="translate(432, 0) scale(2)" fill="rgba(223, 17, 54, 1)"></use><use xlink:href="#SvgjsG2244" transform="translate(432, 48) scale(2)" fill="rgba(223, 17, 54, 1)"></use><use xlink:href="#SvgjsG2244" transform="translate(432, 96) scale(2)" fill="rgba(223, 17, 54, 1)"></use><use xlink:href="#SvgjsG2244" transform="translate(432, 144) scale(2)" fill="rgba(223, 17, 54, 1)"></use><use xlink:href="#SvgjsG2244" transform="translate(432, 192) scale(2)" fill="rgba(223, 17, 54, 1)"></use><use xlink:href="#SvgjsG2244" transform="translate(432, 240) scale(2)" fill="rgba(223, 17, 54, 1)"></use><use xlink:href="#SvgjsG2244" transform="translate(432, 288) scale(2)" fill="rgba(223, 17, 54, 1)"></use><use xlink:href="#SvgjsG2244" transform="translate(432, 336) scale(2)" fill="rgba(223, 17, 54, 1)"></use><use xlink:href="#SvgjsG2244" transform="translate(432, 384) scale(2)" fill="rgba(223, 17, 54, 1)"></use><use xlink:href="#SvgjsG2244" transform="translate(432, 432) scale(2)" fill="rgba(223, 17, 54, 1)"></use></g></defs></svg>